PathFileType	4	(X/Y/Z)	C:\Users\86182\Documents\cortex\Trimmed_M4_L5.trc
DataRate	CameraRate	NumFrames	NumMarkers	Units	OrigDataRate	OrigDataStartFrame	OrigNumFrames
100.00	100.00	       98	2	mm	100.00	541	       901
Frame#	Time	gripper			box			
		X1	Y1	Z1	X2	Y2	Z2	

541	5.400	276.27573	151.28879	292.49854	276.53729	149.51230	156.63390	
542	5.410	276.27499	151.28864	292.49759	276.54126	149.51173	156.63208	
543	5.420	276.27368	151.28825	292.49622	276.54401	149.51228	156.63017	
544	5.430	276.27197	151.28772	292.49463	276.54602	149.51324	156.62845	
545	5.440	276.27026	151.28719	292.49316	276.54800	149.51370	156.62706	
546	5.450	276.26910	151.28679	292.49216	276.55029	149.51315	156.62617	
547	5.460	276.26868	151.28665	292.49185	276.55273	149.51163	156.62590	
548	5.470	276.26889	151.28670	292.49216	276.55481	149.50954	156.62630	
549	5.480	276.26938	151.28679	292.49283	276.55597	149.50740	156.62730	
550	5.490	276.26981	151.28685	292.49359	276.55600	149.50563	156.62875	
551	5.500	276.27005	151.28680	292.49442	276.55493	149.50459	156.63039	
552	5.510	276.27011	151.28665	292.49521	276.55289	149.50452	156.63193	
553	5.520	276.26971	151.28633	292.49579	276.54990	149.50560	156.63326	
554	5.530	276.26852	151.28574	292.49576	276.54587	149.50786	156.63435	
555	5.540	276.26651	151.28487	292.49500	276.54102	149.51114	156.63519	
556	5.550	276.26404	151.28391	292.49371	276.53568	149.51497	156.63577	
557	5.560	276.26202	151.28317	292.49231	276.53067	149.51863	156.63609	
558	5.570	276.26114	151.28293	292.49130	276.52701	149.52129	156.63618	
559	5.580	276.26166	151.28329	292.49088	276.52548	149.52222	156.63611	
560	5.590	276.26328	151.28406	292.49112	276.52667	149.52107	156.63588	
561	5.600	276.26535	151.28497	292.49182	276.53043	149.51794	156.63554	
562	5.610	276.26733	151.28578	292.49277	276.53610	149.51335	156.63515	
563	5.620	276.26883	151.28633	292.49371	276.54233	149.50838	156.63475	
564	5.630	276.26971	151.28661	292.49454	276.54782	149.50403	156.63443	
565	5.640	276.27020	151.28670	292.49533	276.55206	149.50081	156.63417	
566	5.650	276.27078	151.28677	292.49628	276.55499	149.49878	156.63391	
567	5.660	276.27164	151.28697	292.49747	276.55646	149.49809	156.63364	
568	5.670	276.27267	151.28722	292.49872	276.55630	149.49889	156.63329	
569	5.680	276.27353	151.28741	292.49982	276.55444	149.50125	156.63281	
570	5.690	276.27390	151.28746	292.50052	276.55109	149.50504	156.63216	
571	5.700	276.27380	151.28735	292.50085	276.54669	149.50987	156.63133	
572	5.710	276.27338	151.28712	292.50092	276.54184	149.51511	156.63037	
573	5.720	276.27274	151.28683	292.50073	276.53705	149.52005	156.62950	
574	5.730	276.27182	151.28647	292.50031	276.53235	149.52417	156.62910	
575	5.740	276.27063	151.28598	292.49979	276.52777	149.52711	156.62950	
576	5.750	276.26913	151.28532	292.49927	276.52393	149.52853	156.63062	
577	5.760	276.26736	151.28452	292.49884	276.52194	149.52817	156.63199	
578	5.770	276.26544	151.28358	292.49841	276.52280	149.52580	156.63313	
579	5.780	276.26367	151.28273	292.49805	276.52676	149.52162	156.63380	
580	5.790	276.26257	151.28212	292.49786	276.53329	149.51610	156.63391	
581	5.800	276.26239	151.28191	292.49802	276.54114	149.51009	156.63359	
582	5.810	276.26324	151.28215	292.49847	276.54877	149.50465	156.63303	
583	5.820	276.26514	151.28284	292.49927	276.55457	149.50073	156.63251	
584	5.830	276.26773	151.28389	292.50037	276.55750	149.49889	156.63223	
585	5.840	276.27057	151.28511	292.50159	276.55743	149.49908	156.63232	
586	5.850	276.27313	151.28625	292.50269	276.55502	149.50087	156.63269	
587	5.860	276.27499	151.28716	292.50339	276.55118	149.50366	156.63318	
588	5.870	276.27597	151.28772	292.50351	276.54660	149.50700	156.63367	
589	5.880	276.27612	151.28796	292.50311	276.54178	149.51065	156.63412	
590	5.890	276.27554	151.28790	292.50223	276.53711	149.51428	156.63449	
591	5.900	276.27426	151.28755	292.50104	276.53314	149.51747	156.63475	
592	5.910	276.27228	151.28690	292.49945	276.53027	149.51982	156.63490	
593	5.920	276.26953	151.28592	292.49744	276.52863	149.52124	156.63495	
594	5.930	276.26614	151.28468	292.49521	276.52789	149.52191	156.63493	
595	5.940	276.26251	151.28329	292.49298	276.52786	149.52199	156.63489	
596	5.950	276.25912	151.28198	292.49103	276.52853	149.52141	156.63483	
597	5.960	276.25653	151.28101	292.48947	276.53006	149.52008	156.63477	
598	5.970	276.25504	151.28049	292.48834	276.53244	149.51805	156.63467	
599	5.980	276.25452	151.28040	292.48749	276.53540	149.51558	156.63454	
600	5.990	276.25464	151.28058	292.48694	276.53857	149.51303	156.63435	
601	6.000	276.25516	151.28090	292.48663	276.54172	149.51065	156.63411	
602	6.010	276.25592	151.28130	292.48660	276.54456	149.50858	156.63385	
603	6.020	276.25684	151.28171	292.48682	276.54678	149.50703	156.63356	
604	6.030	276.25781	151.28210	292.48730	276.54816	149.50624	156.63330	
605	6.040	276.25888	151.28252	292.48798	276.54874	149.50601	156.63312	
606	6.050	276.26022	151.28302	292.48877	276.54892	149.50601	156.63304	
607	6.060	276.26196	151.28371	292.48972	276.54895	149.50592	156.63310	
608	6.070	276.26404	151.28455	292.49072	276.54889	149.50577	156.63326	
609	6.080	276.26624	151.28543	292.49173	276.54865	149.50572	156.63344	
610	6.090	276.26822	151.28624	292.49268	276.54831	149.50577	156.63362	
611	6.100	276.26978	151.28687	292.49347	276.54816	149.50572	156.63376	
612	6.110	276.27075	151.28725	292.49393	276.54819	149.50555	156.63385	
613	6.120	276.27087	151.28734	292.49387	276.54797	149.50565	156.63393	
614	6.130	276.27014	151.28709	292.49319	276.54700	149.50636	156.63402	
615	6.140	276.26865	151.28659	292.49200	276.54514	149.50778	156.63414	
616	6.150	276.26675	151.28593	292.49057	276.54269	149.50964	156.63431	
617	6.160	276.26489	151.28529	292.48914	276.53989	149.51173	156.63449	
618	6.170	276.26334	151.28476	292.48798	276.53677	149.51398	156.63469	
619	6.180	276.26236	151.28442	292.48724	276.53357	149.51616	156.63493	
620	6.190	276.26208	151.28433	292.48700	276.53082	149.51787	156.63518	
621	6.200	276.26254	151.28450	292.48730	276.52917	149.51859	156.63536	
622	6.210	276.26358	151.28487	292.48807	276.52899	149.51816	156.63547	
623	6.220	276.26508	151.28537	292.48923	276.52997	149.51689	156.63550	
624	6.230	276.26678	151.28593	292.49066	276.53156	149.51535	156.63547	
625	6.240	276.26840	151.28645	292.49210	276.53323	149.51398	156.63538	
626	6.250	276.26953	151.28679	292.49326	276.53461	149.51300	156.63528	
627	6.260	276.26987	151.28680	292.49390	276.53543	149.51257	156.63519	
628	6.270	276.26935	151.28653	292.49396	276.53571	149.51257	156.63515	
629	6.280	276.26834	151.28609	292.49368	276.53549	149.51291	156.63513	
630	6.290	276.26736	151.28566	292.49329	276.53491	149.51347	156.63515	
631	6.300	276.26678	151.28545	292.49298	276.53397	149.51433	156.63518	
632	6.310	276.26660	151.28543	292.49261	276.53271	149.51552	156.63521	
633	6.320	276.26648	151.28549	292.49200	276.53128	149.51700	156.63524	
634	6.330	276.26605	151.28548	292.49109	276.53000	149.51840	156.63524	
635	6.340	276.26535	151.28535	292.49002	276.52933	149.51930	156.63522	
636	6.350	276.26456	151.28516	292.48901	276.52969	149.51932	156.63515	
637	6.360	276.26367	151.28490	292.48816	276.53125	149.51830	156.63501	
638	6.370	276.26273	151.28455	292.48755	276.53387	149.51636	156.63484	
